# Blender 4.1.1
# www.blender.org
mtllib SemiCylinder.mtl
o Cylinder
v 0.500000 -0.000000 -0.500000
v -0.500000 0.000000 -0.500000
v 0.500000 -0.000000 0.500000
v -0.500000 0.000000 0.500000
v 0.500000 -0.049009 0.497592
v -0.500000 -0.049009 0.497592
v 0.500000 -0.097545 0.490393
v -0.500000 -0.097545 0.490393
v 0.500000 -0.145142 0.478470
v -0.500000 -0.145142 0.478470
v 0.500000 -0.191342 0.461940
v -0.500000 -0.191342 0.461940
v 0.500000 -0.235698 0.440961
v -0.500000 -0.235698 0.440961
v 0.500000 -0.277785 0.415735
v -0.500000 -0.277785 0.415735
v 0.500000 -0.317197 0.386505
v -0.500000 -0.317197 0.386505
v 0.500000 -0.353553 0.353553
v -0.500000 -0.353553 0.353553
v 0.500000 -0.386505 0.317197
v -0.500000 -0.386505 0.317197
v 0.500000 -0.415735 0.277785
v -0.500000 -0.415735 0.277785
v 0.500000 -0.440961 0.235698
v -0.500000 -0.440961 0.235698
v 0.500000 -0.461940 0.191342
v -0.500000 -0.461940 0.191342
v 0.500000 -0.478470 0.145142
v -0.500000 -0.478470 0.145142
v 0.500000 -0.490393 0.097545
v -0.500000 -0.490393 0.097545
v 0.500000 -0.497592 0.049009
v -0.500000 -0.497592 0.049009
v 0.500000 -0.500000 0.000000
v -0.500000 -0.500000 0.000000
v 0.500000 -0.497592 -0.049009
v -0.500000 -0.497592 -0.049009
v 0.500000 -0.490393 -0.097545
v -0.500000 -0.490393 -0.097545
v 0.500000 -0.478470 -0.145142
v -0.500000 -0.478470 -0.145142
v 0.500000 -0.461940 -0.191342
v -0.500000 -0.461940 -0.191342
v 0.500000 -0.440961 -0.235698
v -0.500000 -0.440961 -0.235698
v 0.500000 -0.415735 -0.277785
v -0.500000 -0.415735 -0.277785
v 0.500000 -0.386505 -0.317197
v -0.500000 -0.386505 -0.317197
v 0.500000 -0.353553 -0.353553
v -0.500000 -0.353553 -0.353553
v 0.500000 -0.317197 -0.386505
v -0.500000 -0.317197 -0.386505
v 0.500000 -0.277785 -0.415735
v -0.500000 -0.277785 -0.415735
v 0.500000 -0.235698 -0.440961
v -0.500000 -0.235698 -0.440961
v 0.500000 -0.191342 -0.461940
v -0.500000 -0.191342 -0.461940
v 0.500000 -0.145142 -0.478470
v -0.500000 -0.145142 -0.478470
v 0.500000 -0.097545 -0.490393
v -0.500000 -0.097545 -0.490393
v 0.500000 -0.049009 -0.497592
v -0.500000 -0.049009 -0.497592
vn -1.0000 -0.0000 -0.0000
vn -0.0000 -0.0491 0.9988
vn -0.0000 -0.1467 0.9892
vn -0.0000 -0.2430 0.9700
vn -0.0000 -0.3369 0.9415
vn -0.0000 -0.4276 0.9040
vn -0.0000 -0.5141 0.8577
vn -0.0000 -0.5957 0.8032
vn -0.0000 -0.6716 0.7410
vn -0.0000 -0.7410 0.6716
vn -0.0000 -0.8032 0.5957
vn -0.0000 -0.8577 0.5141
vn -0.0000 -0.9040 0.4276
vn -0.0000 -0.9415 0.3369
vn -0.0000 -0.9700 0.2430
vn -0.0000 -0.9892 0.1467
vn -0.0000 -0.9988 0.0491
vn -0.0000 -0.9988 -0.0491
vn -0.0000 -0.9892 -0.1467
vn -0.0000 -0.9700 -0.2430
vn -0.0000 -0.9415 -0.3369
vn -0.0000 -0.9040 -0.4276
vn -0.0000 -0.8577 -0.5141
vn -0.0000 -0.8032 -0.5957
vn -0.0000 -0.7410 -0.6716
vn -0.0000 -0.6716 -0.7410
vn -0.0000 -0.5957 -0.8032
vn -0.0000 -0.5141 -0.8577
vn -0.0000 -0.4276 -0.9040
vn -0.0000 -0.3369 -0.9415
vn -0.0000 -0.2430 -0.9700
vn -0.0000 -0.1467 -0.9892
vn -0.0000 -0.0491 -0.9988
vn 1.0000 -0.0000 -0.0000
vn -0.0000 1.0000 -0.0000
vt 0.500000 1.000000
vt 0.000000 1.000000
vt 0.015625 1.000000
vt 0.031250 1.000000
vt 0.046875 1.000000
vt 0.062500 1.000000
vt 0.078125 1.000000
vt 0.093750 1.000000
vt 0.109375 1.000000
vt 0.125000 1.000000
vt 0.140625 1.000000
vt 0.156250 1.000000
vt 0.171875 1.000000
vt 0.187500 1.000000
vt 0.203125 1.000000
vt 0.218750 1.000000
vt 0.234375 1.000000
vt 0.250000 1.000000
vt 0.265625 1.000000
vt 0.281250 1.000000
vt 0.296875 1.000000
vt 0.312500 1.000000
vt 0.328125 1.000000
vt 0.343750 1.000000
vt 0.359375 1.000000
vt 0.375000 1.000000
vt 0.390625 1.000000
vt 0.406250 1.000000
vt 0.421875 1.000000
vt 0.437500 1.000000
vt 0.453125 1.000000
vt 0.468750 1.000000
vt 0.484375 1.000000
vt 0.500000 0.500000
vt 0.484375 0.500000
vt 0.468750 0.500000
vt 0.453125 0.500000
vt 0.437500 0.500000
vt 0.421875 0.500000
vt 0.406250 0.500000
vt 0.390625 0.500000
vt 0.375000 0.500000
vt 0.359375 0.500000
vt 0.343750 0.500000
vt 0.328125 0.500000
vt 0.312500 0.500000
vt 0.296875 0.500000
vt 0.281250 0.500000
vt 0.265625 0.500000
vt 0.250000 0.500000
vt 0.234375 0.500000
vt 0.218750 0.500000
vt 0.203125 0.500000
vt 0.187500 0.500000
vt 0.171875 0.500000
vt 0.156250 0.500000
vt 0.140625 0.500000
vt 0.125000 0.500000
vt 0.109375 0.500000
vt 0.093750 0.500000
vt 0.078125 0.500000
vt 0.062500 0.500000
vt 0.046875 0.500000
vt 0.031250 0.500000
vt 0.015625 0.500000
vt 0.000000 0.500000
s 0
f 4/1/1 2/2/1 66/3/1 64/4/1 62/5/1 60/6/1 58/7/1 56/8/1 54/9/1 52/10/1 50/11/1 48/12/1 46/13/1 44/14/1 42/15/1 40/16/1 38/17/1 36/18/1 34/19/1 32/20/1 30/21/1 28/22/1 26/23/1 24/24/1 22/25/1 20/26/1 18/27/1 16/28/1 14/29/1 12/30/1 10/31/1 8/32/1 6/33/1
f 3/34/2 4/1/2 6/33/2 5/35/2
f 5/35/3 6/33/3 8/32/3 7/36/3
f 7/36/4 8/32/4 10/31/4 9/37/4
f 9/37/5 10/31/5 12/30/5 11/38/5
f 11/38/6 12/30/6 14/29/6 13/39/6
f 13/39/7 14/29/7 16/28/7 15/40/7
f 15/40/8 16/28/8 18/27/8 17/41/8
f 17/41/9 18/27/9 20/26/9 19/42/9
f 19/42/10 20/26/10 22/25/10 21/43/10
f 21/43/11 22/25/11 24/24/11 23/44/11
f 23/44/12 24/24/12 26/23/12 25/45/12
f 25/45/13 26/23/13 28/22/13 27/46/13
f 27/46/14 28/22/14 30/21/14 29/47/14
f 29/47/15 30/21/15 32/20/15 31/48/15
f 31/48/16 32/20/16 34/19/16 33/49/16
f 33/49/17 34/19/17 36/18/17 35/50/17
f 35/50/18 36/18/18 38/17/18 37/51/18
f 37/51/19 38/17/19 40/16/19 39/52/19
f 39/52/20 40/16/20 42/15/20 41/53/20
f 41/53/21 42/15/21 44/14/21 43/54/21
f 43/54/22 44/14/22 46/13/22 45/55/22
f 45/55/23 46/13/23 48/12/23 47/56/23
f 47/56/24 48/12/24 50/11/24 49/57/24
f 49/57/25 50/11/25 52/10/25 51/58/25
f 51/58/26 52/10/26 54/9/26 53/59/26
f 53/59/27 54/9/27 56/8/27 55/60/27
f 55/60/28 56/8/28 58/7/28 57/61/28
f 57/61/29 58/7/29 60/6/29 59/62/29
f 59/62/30 60/6/30 62/5/30 61/63/30
f 61/63/31 62/5/31 64/4/31 63/64/31
f 63/64/32 64/4/32 66/3/32 65/65/32
f 65/65/33 66/3/33 2/2/33 1/66/33
f 3/34/34 5/35/34 7/36/34 9/37/34 11/38/34 13/39/34 15/40/34 17/41/34 19/42/34 21/43/34 23/44/34 25/45/34 27/46/34 29/47/34 31/48/34 33/49/34 35/50/34 37/51/34 39/52/34 41/53/34 43/54/34 45/55/34 47/56/34 49/57/34 51/58/34 53/59/34 55/60/34 57/61/34 59/62/34 61/63/34 63/64/34 65/65/34 1/66/34
f 1/66/35 2/2/35 4/1/35 3/34/35
